<svg xmlns="http://www.w3.org/2000/svg" height="48px" viewBox="0 -960 960 960" width="48px" fill="#FFFFFF"><path d="M432-288H264q-79.68 0-135.84-56.23Q72-400.45 72-480.23 72-560 128.16-616T264-672h168v72H264q-49.63 0-84.81 35.19Q144-529.63 144-480q0 49.63 35.19 84.81Q214.37-360 264-360h168v72Zm-96-168v-48h288v48H336Zm192 168v-72h168q49.63 0 84.81-35.19Q816-430.37 816-480q0-49.63-35.19-84.81Q745.63-600 696-600H528v-72h168q79.68 0 135.84 56.23Q888-559.55 888-479.77 888-400 831.84-344T696-288H528Z"/></svg>
